<svg xmlns="http://www.w3.org/2000/svg" xmlns:xlink="http://www.w3.org/1999/xlink" width="500" zoomAndPan="magnify" viewBox="0 0 375 374.999991" height="500" preserveAspectRatio="xMidYMid meet" version="1.0"><rect x="-37.5" width="450" fill="#ffffff" y="-37.499999" height="449.999989" fill-opacity="1"/><rect x="-37.5" width="450" fill="#ffffff" y="-37.499999" height="449.999989" fill-opacity="1"/><rect x="-37.5" width="450" fill="#ffffff" y="-37.499999" height="449.999989" fill-opacity="1"/><path fill="#d99e82" d="M 187.703125 202.90625 C 133.277344 202.90625 89.164062 201.601562 89.164062 240.246094 C 89.164062 278.875 133.277344 287.664062 187.703125 287.664062 C 242.128906 287.664062 286.246094 278.875 286.246094 240.246094 C 286.246094 201.605469 242.128906 202.90625 187.703125 202.90625 Z M 187.703125 202.90625 " fill-opacity="1" fill-rule="nonzero"/><path fill="#662113" d="M 283.359375 205.839844 C 283.359375 205.839844 235.625 200.125 187.703125 199.882812 C 139.785156 200.125 92.050781 205.839844 92.050781 205.839844 C 87.328125 243.453125 126.53125 258.949219 187.703125 258.949219 C 248.878906 258.949219 288.078125 243.453125 283.359375 205.839844 Z M 283.359375 205.839844 " fill-opacity="1" fill-rule="nonzero"/><path fill="#ffcc4d" d="M 279.964844 190.804688 L 94.957031 194.558594 C 88.570312 194.558594 83.222656 207.507812 90 210.894531 C 140.574219 226.628906 181.226562 242.546875 181.226562 242.546875 C 186.816406 245.636719 188.703125 245.648438 194.296875 242.566406 C 194.296875 242.566406 250.433594 220.09375 286.496094 210.652344 C 291.609375 209.316406 286.347656 190.804688 279.964844 190.804688 Z M 279.964844 190.804688 " fill-opacity="1" fill-rule="nonzero"/><path fill="#77b255" d="M 284.839844 191.292969 C 273.804688 181.121094 274.441406 186.535156 265.988281 184.148438 C 262.773438 183.242188 239.792969 153.527344 187.414062 153.527344 L 187.296875 153.527344 C 134.917969 153.527344 111.933594 183.242188 108.722656 184.148438 C 100.265625 186.535156 100.90625 181.121094 89.871094 191.292969 C 84.808594 195.964844 83.4375 198.394531 88.777344 199.601562 C 96.828125 201.421875 96.097656 206.296875 101.863281 207.992188 C 108.84375 210.042969 111.714844 206.296875 122.96875 207.828125 C 132.570312 209.136719 133.199219 221.59375 142.882812 221.59375 C 152.570312 221.59375 152.570312 216.945312 162.253906 216.945312 C 171.933594 216.945312 177.660156 229.410156 187.347656 229.410156 C 197.035156 229.410156 202.757812 216.945312 212.445312 216.945312 C 222.132812 216.945312 222.132812 221.59375 231.8125 221.59375 C 241.5 221.59375 242.128906 209.136719 251.730469 207.828125 C 262.984375 206.300781 265.859375 210.042969 272.835938 207.992188 C 278.601562 206.296875 277.871094 201.425781 285.917969 199.601562 C 291.273438 198.398438 289.910156 195.964844 284.839844 191.292969 Z M 284.839844 191.292969 " fill-opacity="1" fill-rule="nonzero"/><path fill="#dd2e44" d="M 281.074219 180.300781 C 281.074219 197.636719 239.269531 205.824219 187.703125 205.824219 C 136.136719 205.824219 94.332031 197.636719 94.332031 180.300781 C 94.332031 148.914062 99.941406 148.914062 187.703125 148.914062 C 275.464844 148.914062 281.074219 148.917969 281.074219 180.300781 Z M 281.074219 180.300781 " fill-opacity="1" fill-rule="nonzero"/><path fill="#d99e82" d="M 187.703125 87.371094 C 133.277344 87.371094 89.164062 112.882812 89.164062 151.519531 C 89.164062 187.105469 133.277344 188.558594 187.703125 188.558594 C 242.128906 188.558594 286.246094 187.105469 286.246094 151.519531 C 286.246094 112.875 242.128906 87.371094 187.703125 87.371094 Z M 187.703125 87.371094 " fill-opacity="1" fill-rule="nonzero"/><path fill="#ffe8b6" d="M 145.792969 105.792969 C 142.902344 103.941406 139.0625 104.789062 137.214844 107.679688 C 135.371094 110.574219 136.210938 114.421875 139.105469 116.261719 C 141.996094 118.117188 149.324219 119.5 151.179688 116.605469 C 153.023438 113.710938 148.6875 107.640625 145.792969 105.792969 Z M 202.328125 99.78125 C 199.0625 100.835938 193.332031 105.625 194.394531 108.890625 C 195.457031 112.15625 202.898438 112.65625 206.160156 111.597656 C 209.425781 110.539062 211.207031 107.03125 210.144531 103.765625 C 209.085938 100.507812 205.578125 98.71875 202.328125 99.78125 Z M 265.683594 140.652344 C 263.058594 138.445312 256.480469 141.957031 254.265625 144.585938 C 252.058594 147.214844 252.402344 151.132812 255.027344 153.339844 C 257.652344 155.546875 261.574219 155.203125 263.78125 152.578125 C 265.992188 149.945312 268.316406 142.859375 265.683594 140.652344 Z M 244.527344 111.601562 C 241.632812 109.753906 237.796875 110.605469 235.941406 113.496094 C 234.097656 116.390625 234.945312 120.230469 237.835938 122.078125 C 240.730469 123.929688 248.058594 125.3125 249.90625 122.421875 C 251.757812 119.523438 247.417969 113.449219 244.527344 111.601562 Z M 157.410156 152.269531 C 154.519531 150.421875 150.679688 151.269531 148.824219 154.164062 C 146.980469 157.050781 147.828125 160.898438 150.71875 162.738281 C 153.613281 164.59375 160.941406 165.980469 162.789062 163.082031 C 164.640625 160.1875 160.300781 154.117188 157.410156 152.269531 Z M 175.101562 124.335938 C 173.148438 127.160156 171.5 134.441406 174.328125 136.394531 C 177.152344 138.34375 183.371094 134.21875 185.324219 131.398438 C 187.273438 128.574219 186.558594 124.703125 183.738281 122.75 C 180.921875 120.800781 177.046875 121.515625 175.101562 124.335938 Z M 221.296875 152.269531 C 218.402344 150.421875 214.566406 151.269531 212.710938 154.164062 C 210.863281 157.050781 211.714844 160.902344 214.605469 162.738281 C 217.496094 164.59375 224.828125 165.980469 226.675781 163.082031 C 228.527344 160.1875 224.1875 154.117188 221.296875 152.269531 Z M 111.898438 129.6875 C 109.613281 132.25 107.0625 139.261719 109.625 141.550781 C 112.171875 143.839844 118.863281 140.539062 121.152344 137.980469 C 123.445312 135.421875 123.226562 131.496094 120.667969 129.199219 C 118.121094 126.910156 114.1875 127.132812 111.898438 129.6875 Z M 111.898438 129.6875 " fill-opacity="1" fill-rule="nonzero"/></svg>