<svg xmlns="http://www.w3.org/2000/svg" xmlns:xlink="http://www.w3.org/1999/xlink" width="500" zoomAndPan="magnify" viewBox="0 0 375 374.999991" height="500" preserveAspectRatio="xMidYMid meet" version="1.0"><defs><clipPath id="70d4c45275"><path d="M 94 95 L 281 95 L 281 280.929688 L 94 280.929688 Z M 94 95 " clip-rule="nonzero"/></clipPath><clipPath id="a4cd96fce1"><path d="M 93.496094 94.179688 L 281.746094 94.179688 L 281.746094 280.929688 L 93.496094 280.929688 Z M 93.496094 94.179688 " clip-rule="nonzero"/></clipPath></defs><rect x="-37.5" width="450" fill="#ffffff" y="-37.499999" height="449.999989" fill-opacity="1"/><rect x="-37.5" width="450" fill="#ffffff" y="-37.499999" height="449.999989" fill-opacity="1"/><rect x="-37.5" width="450" fill="#ffffff" y="-37.499999" height="449.999989" fill-opacity="1"/><g clip-path="url(#70d4c45275)"><path fill="#f3b176" d="M 280.027344 215.191406 C 279.246094 210.425781 277.078125 206.015625 274.9375 201.683594 C 271.824219 195.394531 268.664062 189.03125 264.109375 183.6875 C 259.160156 177.878906 252.746094 173.5 246.160156 169.644531 C 242.925781 167.753906 239.582031 165.957031 236.03125 164.820312 L 236.023438 164.828125 C 236.410156 162.671875 236.667969 160.492188 236.738281 158.292969 C 236.886719 153.566406 236.203125 148.84375 235.171875 144.226562 C 232.457031 132.074219 227.183594 120.28125 218.648438 111.207031 C 210.113281 102.132812 198.105469 95.992188 185.640625 95.953125 C 182.234375 95.941406 178.84375 96.375 175.5 97.035156 C 149.273438 102.210938 122.1875 126.222656 123.371094 154.890625 L 123.367188 154.890625 C 121.527344 155.777344 119.78125 156.832031 118.195312 158.0625 C 111.636719 163.167969 106.417969 169.863281 102.40625 177.140625 C 97.578125 185.875 94.378906 195.757812 94.902344 205.722656 C 95.34375 214.15625 98.429688 222.285156 102.632812 229.609375 C 106.632812 236.574219 113.132812 241.898438 117.164062 248.824219 C 120.652344 254.816406 126.160156 259.402344 132.765625 261.527344 C 140.101562 263.886719 147.890625 263.832031 155.558594 263.765625 C 158.488281 263.738281 161.457031 263.710938 164.292969 262.972656 C 168.980469 261.753906 172.867188 258.757812 176.785156 255.8125 C 178.964844 259.410156 181.449219 262.835938 184.089844 266.105469 C 186.492188 269.078125 189.101562 272 192.433594 273.882812 C 198.730469 277.445312 205.484375 279.917969 212.707031 280.398438 C 219.929688 280.875 227.175781 279.878906 234.242188 278.332031 C 247.992188 275.328125 263.457031 266.871094 271.996094 255.6875 C 274.027344 253.027344 275.007812 249.730469 275.851562 246.496094 C 277.398438 240.589844 278.636719 234.601562 279.5625 228.5625 C 280.242188 224.136719 280.75 219.613281 280.027344 215.191406 Z M 280.027344 215.191406 " fill-opacity="1" fill-rule="nonzero"/></g><path fill="#bb5c52" d="M 203.707031 137.664062 C 203.300781 140.308594 192.707031 141.535156 191.484375 139.699219 C 190.261719 137.867188 190.238281 128.660156 195.761719 127.691406 C 199.226562 127.078125 204.113281 135.015625 203.707031 137.664062 Z M 247.296875 238.425781 C 247.09375 235.574219 243.835938 229.464844 240.777344 230.28125 C 237.722656 231.09375 235.105469 240.441406 235.890625 241.882812 C 237.113281 244.125 247.5 241.277344 247.296875 238.425781 Z M 252.390625 184.484375 C 250.097656 184.867188 248.925781 193.03125 249.539062 194.253906 C 250.152344 195.472656 257.890625 196.085938 258.296875 194.253906 C 258.703125 192.421875 254.832031 184.074219 252.390625 184.484375 Z M 212.464844 257.558594 C 211.445312 255.523438 206.355469 256.339844 205.128906 257.558594 C 203.910156 258.777344 204.320312 267.429688 205.128906 268.753906 C 205.707031 269.703125 213.484375 259.59375 212.464844 257.558594 Z M 156.449219 234.148438 C 154.296875 234.625 153.394531 242.292969 156.449219 243.511719 C 159.507812 244.730469 165.617188 241.679688 165.617188 238.828125 C 165.613281 235.980469 158.28125 233.746094 156.449219 234.148438 Z M 111.308594 205.179688 C 111.582031 206.273438 117.523438 205.8125 120.949219 205.457031 C 122.28125 205.316406 123.234375 204.109375 123.066406 202.78125 C 122.695312 199.886719 121.921875 195.410156 120.683594 195.410156 C 118.84375 195.40625 110.492188 201.921875 111.308594 205.179688 Z M 169.6875 182.855469 C 169.074219 179.800781 162.761719 177.96875 161.335938 178.78125 C 159.910156 179.597656 159.707031 190.996094 161.335938 191.8125 C 161.335938 191.808594 170.300781 185.90625 169.6875 182.855469 Z M 144.839844 119.953125 C 143.667969 121.152344 141.78125 127.28125 143.007812 129.113281 C 144.226562 130.941406 152.578125 128.09375 152.988281 125.855469 C 153.394531 123.617188 145.800781 118.96875 144.839844 119.953125 Z M 210.226562 168.808594 C 208.699219 169.414062 207.984375 178.78125 210.226562 179.800781 C 212.46875 180.816406 221.222656 178.171875 221.425781 175.324219 C 221.628906 172.46875 212.261719 167.992188 210.226562 168.808594 Z M 206.746094 212.78125 C 206.746094 212.78125 209.816406 215.019531 210.632812 214.609375 C 211.445312 214.199219 212.648438 208.78125 212.558594 207.417969 C 212.46875 206.058594 208.183594 205.472656 208.183594 205.472656 Z M 137.445312 261.921875 C 138.40625 258.351562 133.632812 250.433594 131.800781 251.246094 C 129.96875 252.0625 126.910156 258.167969 126.910156 258.167969 C 126.910156 258.167969 134.054688 261.394531 137.445312 261.921875 Z M 155.265625 205.472656 C 155.6875 205.652344 155.636719 212.722656 156.652344 212.648438 C 157.671875 212.570312 163.933594 208.164062 163.933594 208.164062 C 160.675781 207.617188 155.265625 205.472656 155.265625 205.472656 Z M 165.613281 150.285156 C 164.511719 150.984375 164.59375 154.558594 165.613281 155.375 C 166.632812 156.1875 170.90625 153.949219 171.113281 152.828125 C 171.320312 151.710938 167.855469 148.859375 165.613281 150.285156 Z M 187.613281 95.222656 C 187.613281 95.222656 185.574219 98.984375 187.613281 99.800781 C 189.652344 100.613281 194.050781 98.324219 194.089844 96.109375 Z M 257.480469 212.648438 C 256.890625 213.488281 255.445312 217.046875 256.464844 218.273438 C 257.480469 219.496094 263.796875 219.085938 264.203125 217.253906 C 264.609375 215.421875 258.5 211.195312 257.480469 212.648438 Z M 257.480469 212.648438 " fill-opacity="1" fill-rule="nonzero"/><g clip-path="url(#a4cd96fce1)"><path fill="#8b4338" d="M 280.949219 214.246094 C 280.140625 209.300781 277.921875 204.816406 275.773438 200.476562 C 272.675781 194.222656 269.476562 187.75 264.820312 182.289062 C 259.394531 175.917969 252.246094 171.328125 246.628906 168.042969 C 243.6875 166.324219 240.507812 164.589844 237.078125 163.398438 C 237.394531 161.46875 237.605469 159.503906 237.667969 157.523438 C 237.808594 153.230469 237.300781 148.691406 236.082031 143.226562 C 233.082031 129.804688 227.289062 118.238281 219.324219 109.769531 C 210.066406 99.929688 197.792969 94.265625 185.644531 94.226562 C 182.503906 94.210938 179.117188 94.574219 175.320312 95.328125 C 148.335938 100.65625 121.628906 124.953125 122.417969 153.53125 C 120.667969 154.417969 119.050781 155.421875 117.625 156.53125 C 111.40625 161.375 106.011719 167.882812 101.589844 175.894531 C 96.046875 185.925781 93.484375 195.710938 93.96875 204.980469 C 94.371094 212.742188 97.015625 220.914062 101.824219 229.28125 C 103.882812 232.871094 106.605469 236.046875 109.242188 239.121094 C 111.777344 242.082031 114.402344 245.140625 116.355469 248.5 C 120.019531 254.796875 125.742188 259.457031 132.480469 261.621094 C 138.761719 263.644531 145.308594 263.929688 151.75 263.929688 C 153.027344 263.929688 154.300781 263.917969 155.566406 263.910156 C 158.515625 263.882812 161.5625 263.855469 164.527344 263.085938 C 169.0625 261.90625 172.867188 259.136719 176.53125 256.382812 C 178.464844 259.484375 180.703125 262.605469 183.363281 265.902344 C 185.789062 268.902344 188.507812 271.949219 191.976562 273.90625 C 199.074219 277.917969 205.835938 280.085938 212.648438 280.535156 C 213.890625 280.617188 215.15625 280.660156 216.445312 280.660156 C 221.8125 280.660156 227.632812 279.941406 234.441406 278.453125 C 249.566406 275.148438 264.597656 266.121094 272.738281 255.460938 C 274.882812 252.652344 275.902344 249.214844 276.757812 245.941406 C 278.304688 240.023438 279.5625 233.953125 280.484375 227.910156 C 281.121094 223.792969 281.726562 219 280.949219 214.246094 Z M 188.183594 96.195312 C 189.75 96.300781 191.320312 96.511719 192.882812 96.8125 C 192.621094 97.203125 192.1875 97.617188 191.636719 97.984375 C 190.359375 98.832031 188.742188 99.25 187.960938 98.9375 C 187.820312 98.878906 187.75 98.808594 187.703125 98.679688 C 187.5 98.121094 187.8125 97.035156 188.183594 96.195312 Z M 175.679688 97.15625 C 179.304688 96.441406 182.523438 96.097656 185.515625 96.097656 C 185.558594 96.097656 185.59375 96.097656 185.636719 96.097656 C 185.824219 96.097656 186.015625 96.101562 186.203125 96.105469 C 185.863281 97.054688 185.578125 98.300781 185.945312 99.3125 C 186.171875 99.945312 186.632812 100.414062 187.265625 100.671875 C 187.675781 100.835938 188.128906 100.90625 188.601562 100.90625 C 189.976562 100.90625 191.523438 100.300781 192.667969 99.539062 C 193.714844 98.851562 194.421875 98.050781 194.777344 97.226562 C 203.261719 99.277344 211.398438 104.074219 217.964844 111.0625 C 225.699219 119.285156 231.332031 130.554688 234.257812 143.644531 C 235.445312 148.953125 235.933594 153.347656 235.800781 157.480469 C 235.546875 165.453125 232.84375 173.167969 230.230469 179.664062 C 228.402344 184.207031 226.121094 189.351562 222.167969 192.859375 C 219.507812 195.21875 216.183594 196.777344 212.726562 198.292969 C 204.820312 201.761719 195.386719 205.542969 185.371094 207.28125 C 175.066406 209.066406 165.324219 208.367188 157.195312 205.261719 C 156.671875 205.0625 156.152344 204.847656 155.640625 204.628906 C 155.636719 204.628906 155.632812 204.625 155.628906 204.621094 C 146.464844 200.679688 138.476562 193.34375 133.011719 183.792969 C 128.617188 176.121094 125.605469 166.652344 124.53125 157.132812 C 121.242188 127.949219 148.320312 102.5625 175.679688 97.15625 Z M 210.195312 213.691406 C 209.71875 213.550781 208.75 213.023438 207.800781 212.378906 C 208.21875 210.628906 208.6875 208.625 208.984375 206.558594 C 210.238281 206.824219 211.382812 207.234375 211.625 207.542969 C 211.671875 208.769531 210.746094 212.667969 210.195312 213.691406 Z M 156.5625 207.882812 C 156.53125 207.546875 156.511719 207.246094 156.484375 206.976562 C 156.5 206.984375 156.515625 206.988281 156.53125 206.996094 C 157.761719 207.464844 159.03125 207.878906 160.324219 208.246094 C 159.15625 208.886719 158.007812 209.960938 157.390625 210.425781 C 157.214844 210.554688 157.042969 210.683594 156.871094 210.8125 C 156.730469 209.898438 156.625 208.679688 156.5625 207.882812 Z M 128.199219 257.714844 C 129.53125 255.214844 131.253906 252.601562 132.121094 252.132812 C 132.378906 252.207031 133.121094 252.746094 134.078125 254.140625 C 135.433594 256.113281 136.617188 258.914062 136.636719 260.800781 C 135.433594 260.539062 134.234375 260.226562 133.050781 259.847656 C 131.359375 259.304688 129.734375 258.582031 128.199219 257.714844 Z M 164.058594 261.277344 C 161.316406 261.992188 158.386719 262.015625 155.554688 262.039062 C 149.902344 262.089844 144.105469 262.140625 138.496094 261.164062 C 138.644531 257.851562 136 252.871094 133.890625 251.070312 C 132.761719 250.105469 131.925781 250.167969 131.425781 250.394531 C 129.773438 251.125 127.640625 254.804688 126.605469 256.742188 C 123.117188 254.4375 120.15625 251.3125 117.972656 247.5625 C 115.933594 244.058594 113.253906 240.929688 110.667969 237.90625 C 108.085938 234.894531 105.421875 231.785156 103.449219 228.351562 C 98.792969 220.242188 96.230469 212.347656 95.839844 204.882812 C 95.375 195.964844 97.859375 186.515625 103.226562 176.792969 C 107.527344 169.011719 112.757812 162.6875 118.777344 158.003906 C 119.910156 157.121094 121.167969 156.3125 122.527344 155.574219 C 122.566406 156.160156 122.621094 156.746094 122.6875 157.335938 C 123.792969 167.105469 126.886719 176.828125 131.398438 184.710938 C 136.992188 194.480469 145.144531 202.027344 154.519531 206.160156 C 154.585938 206.597656 154.65625 207.40625 154.707031 208.039062 C 154.847656 209.679688 154.960938 211.046875 155.214844 212.015625 C 153.558594 213.183594 151.851562 214.273438 150.054688 215.195312 C 149.785156 215.332031 149.929688 215.714844 150.203125 215.730469 C 152.71875 215.878906 154.890625 214.902344 156.890625 213.542969 C 158.074219 213.28125 161.390625 211.082031 164.160156 209.144531 C 167.449219 209.78125 170.90625 210.101562 174.480469 210.101562 C 178.113281 210.101562 181.875 209.773438 185.703125 209.109375 C 193.457031 207.765625 200.835938 205.230469 207.445312 202.550781 C 207.4375 203.074219 207.421875 203.585938 207.386719 204.097656 C 207.195312 206.832031 206.601562 209.433594 205.847656 212.558594 C 202.894531 224.75 198.890625 238.398438 188.644531 246.035156 C 187.117188 247.175781 185.433594 248.183594 183.804688 249.164062 C 182.714844 249.820312 181.585938 250.496094 180.5 251.214844 C 178.910156 252.265625 177.359375 253.425781 175.859375 254.558594 C 172.027344 257.433594 168.417969 260.144531 164.058594 261.277344 Z M 278.640625 227.632812 C 277.726562 233.613281 276.488281 239.613281 274.949219 245.472656 C 274.140625 248.566406 273.191406 251.796875 271.253906 254.332031 C 263.367188 264.664062 248.761719 273.414062 234.046875 276.628906 C 225.78125 278.4375 219.019531 279.085938 212.773438 278.675781 C 206.253906 278.242188 199.75 276.152344 192.898438 272.28125 C 189.707031 270.476562 187.128906 267.585938 184.820312 264.726562 C 182.171875 261.441406 179.941406 258.339844 178.03125 255.257812 C 179.175781 254.402344 180.34375 253.550781 181.519531 252.773438 C 182.574219 252.078125 183.683594 251.410156 184.757812 250.765625 C 184.945312 250.652344 185.136719 250.539062 185.324219 250.425781 C 185.421875 252.703125 187.480469 255.085938 189.09375 256.316406 C 190.53125 257.414062 192.167969 258.191406 193.460938 259.480469 C 194.824219 260.839844 196.097656 262.273438 197.46875 263.625 C 197.5625 263.71875 197.753906 263.625 197.703125 263.488281 C 196.65625 260.664062 195.363281 258.503906 192.855469 256.722656 C 191.296875 255.613281 189.601562 254.765625 188.457031 253.179688 C 187.53125 251.902344 187.285156 250.757812 187.191406 249.285156 C 188.0625 248.734375 188.925781 248.160156 189.753906 247.539062 C 200.128906 239.808594 204.335938 226.484375 207.335938 214.316406 C 208.953125 215.351562 209.878906 215.597656 210.421875 215.597656 C 210.429688 215.597656 210.433594 215.597656 210.4375 215.597656 C 210.199219 217.066406 210.023438 218.542969 209.929688 220.027344 C 209.921875 220.164062 210.132812 220.226562 210.191406 220.097656 C 211.523438 217.167969 212.527344 214.097656 213.355469 210.992188 C 213.792969 209.332031 214.246094 207.660156 214.597656 205.980469 C 214.796875 205.015625 215.015625 204.273438 214.382812 203.472656 C 214.347656 203.429688 214.261719 203.402344 214.214844 203.425781 C 213.277344 203.816406 213.101562 204.5625 212.816406 205.492188 C 212.769531 205.65625 212.71875 205.820312 212.671875 205.984375 C 211.800781 205.308594 210.40625 204.921875 209.207031 204.699219 C 209.222656 204.542969 209.238281 204.390625 209.25 204.238281 C 209.304688 203.433594 209.324219 202.617188 209.3125 201.789062 C 210.746094 201.191406 212.144531 200.589844 213.492188 200 C 217.089844 198.421875 220.558594 196.792969 223.421875 194.25 C 227.675781 190.472656 230.066406 185.097656 231.976562 180.359375 C 233.800781 175.820312 235.667969 170.695312 236.757812 165.269531 C 239.933594 166.40625 242.921875 168.042969 245.699219 169.667969 C 251.1875 172.878906 258.164062 177.355469 263.410156 183.511719 C 267.914062 188.792969 271.0625 195.160156 274.109375 201.316406 C 276.195312 205.53125 278.351562 209.890625 279.113281 214.5625 C 279.839844 219.03125 279.25 223.652344 278.640625 227.632812 Z M 195.046875 141.503906 C 196.644531 141.503906 198.355469 141.277344 199.636719 140.992188 C 201.761719 140.523438 204.355469 139.589844 204.628906 137.804688 C 204.988281 135.5 202.554688 131.140625 200.144531 128.785156 C 198.550781 127.222656 196.980469 126.527344 195.601562 126.769531 C 193.507812 127.140625 191.878906 128.554688 190.894531 130.855469 C 189.5 134.109375 189.65625 138.636719 190.714844 140.21875 C 191.34375 141.171875 193.113281 141.503906 195.046875 141.503906 Z M 192.605469 131.589844 C 193.34375 129.871094 194.457031 128.867188 195.921875 128.609375 C 196.660156 128.480469 197.71875 129.03125 198.835938 130.121094 C 201.277344 132.507812 202.96875 136.304688 202.78125 137.523438 C 202.757812 137.691406 202.253906 138.308594 200.359375 138.878906 C 196.835938 139.945312 192.761719 139.726562 192.261719 139.179688 C 191.738281 138.390625 191.3125 134.613281 192.605469 131.589844 Z M 248.226562 238.355469 C 248.050781 235.914062 246.03125 231.78125 243.6875 230.109375 C 242.363281 229.164062 241.242188 229.1875 240.539062 229.375 C 238.734375 229.855469 237.371094 232.253906 236.546875 234.179688 C 235.496094 236.628906 234.296875 240.910156 235.070312 242.332031 C 235.609375 243.316406 236.878906 243.617188 238.226562 243.617188 C 239.984375 243.617188 241.875 243.105469 242.445312 242.9375 C 243.855469 242.53125 248.417969 240.984375 248.226562 238.355469 Z M 242.011719 241.125 C 238.804688 242.082031 236.929688 241.75 236.71875 241.453125 C 236.464844 240.675781 237.25 236.75 238.820312 233.742188 C 239.902344 231.675781 240.71875 231.265625 241.023438 231.183594 C 241.484375 231.0625 242.015625 231.210938 242.605469 231.632812 C 244.609375 233.058594 246.242188 236.71875 246.371094 238.492188 C 246.402344 239.023438 244.875 240.269531 242.011719 241.125 Z M 254.621094 196.328125 C 255.25 196.328125 255.808594 196.300781 256.214844 196.246094 C 257.988281 196.03125 258.996094 195.425781 259.207031 194.453125 C 259.617188 192.613281 257.269531 187.25 255.023438 184.878906 C 254.054688 183.855469 253.117188 183.414062 252.234375 183.558594 C 251.402344 183.699219 250.671875 184.367188 250.070312 185.542969 C 248.8125 188.019531 248.019531 193.304688 248.703125 194.667969 C 249.347656 195.953125 252.429688 196.328125 254.621094 196.328125 Z M 251.875 186.136719 C 252.273438 185.453125 252.53125 185.402344 252.542969 185.402344 C 252.664062 185.386719 253.054688 185.515625 253.667969 186.164062 C 255.699219 188.304688 257.527344 192.945312 257.394531 193.996094 C 257.257812 194.113281 256.730469 194.355469 255.480469 194.445312 C 253.222656 194.605469 250.875 194.117188 250.359375 193.777344 C 250.121094 192.796875 250.640625 188.273438 251.875 186.136719 Z M 210.632812 255.476562 C 208.496094 255.128906 205.5625 255.804688 204.472656 256.898438 C 202.8125 258.558594 203.398438 267.703125 204.332031 269.242188 C 204.511719 269.527344 204.835938 269.746094 205.25 269.746094 C 205.460938 269.746094 205.691406 269.691406 205.9375 269.554688 C 207.023438 268.957031 209.160156 266.316406 210.710938 264.019531 C 214.175781 258.886719 213.519531 257.574219 213.300781 257.140625 C 212.992188 256.53125 212.285156 255.742188 210.632812 255.476562 Z M 208.984375 263.238281 C 207.632812 265.199219 206.40625 266.640625 205.664062 267.378906 C 205.195312 264.972656 205.09375 259.105469 205.792969 258.214844 C 206.257812 257.753906 207.886719 257.246094 209.414062 257.246094 C 209.730469 257.246094 210.042969 257.269531 210.339844 257.320312 C 210.730469 257.382812 211.417969 257.550781 211.617188 257.945312 C 211.71875 258.363281 211.097656 260.164062 208.984375 263.238281 Z M 156.101562 244.378906 C 156.707031 244.621094 157.375 244.726562 158.074219 244.726562 C 160.066406 244.726562 162.28125 243.859375 163.820312 242.816406 C 165.578125 241.625 166.546875 240.210938 166.546875 238.832031 C 166.546875 237.839844 165.996094 236.890625 164.902344 236.015625 C 162.582031 234.152344 157.988281 232.855469 156.246094 233.242188 C 154.550781 233.617188 153.753906 236.140625 153.585938 238.1875 C 153.386719 240.617188 153.945312 243.515625 156.101562 244.378906 Z M 155.449219 238.335938 C 155.609375 236.324219 156.320312 235.136719 156.652344 235.0625 C 156.742188 235.042969 156.859375 235.03125 157.003906 235.03125 C 158.378906 235.03125 161.914062 236.007812 163.738281 237.472656 C 164.351562 237.957031 164.6875 238.441406 164.6875 238.832031 C 164.6875 239.542969 163.957031 240.476562 162.777344 241.273438 C 160.8125 242.601562 158.1875 243.203125 156.800781 242.648438 C 155.828125 242.257812 155.269531 240.488281 155.449219 238.335938 Z M 144.722656 130.636719 C 145.308594 130.636719 145.980469 130.558594 146.742188 130.398438 C 149.492188 129.832031 153.527344 128.097656 153.90625 126.019531 C 154.347656 123.613281 149.835938 120.714844 148.066406 119.796875 C 146.074219 118.773438 144.839844 118.617188 144.175781 119.296875 C 142.859375 120.644531 140.648438 127.25 142.234375 129.628906 C 142.671875 130.300781 143.511719 130.636719 144.722656 130.636719 Z M 145.378906 120.753906 C 146.332031 120.847656 149.546875 122.5625 151.277344 124.421875 C 151.972656 125.171875 152.082031 125.597656 152.066406 125.691406 C 151.984375 126.15625 150.40625 127.410156 147.5625 128.269531 C 145.140625 128.996094 143.941406 128.757812 143.785156 128.597656 C 142.953125 127.351562 144.367188 122.097656 145.378906 120.753906 Z M 207.871094 174.375 C 207.824219 176.367188 208.019531 179.824219 209.839844 180.652344 C 210.300781 180.863281 210.925781 180.957031 211.640625 180.957031 C 214.054688 180.957031 217.550781 179.890625 219.734375 178.59375 C 221.394531 177.609375 222.28125 176.53125 222.359375 175.390625 C 222.449219 174.15625 221.507812 172.8125 219.566406 171.398438 C 216.921875 169.46875 211.832031 167.164062 209.875 167.945312 C 208.09375 168.652344 207.894531 173.425781 207.871094 174.375 Z M 210.632812 169.65625 C 211.511719 169.445312 215.5 170.742188 218.464844 172.902344 C 220.007812 174.027344 220.523438 174.871094 220.496094 175.253906 C 220.46875 175.617188 220.003906 176.257812 218.78125 176.988281 C 216.09375 178.582031 211.765625 179.476562 210.613281 178.953125 C 210.460938 178.882812 210.117188 178.417969 209.90625 177.160156 C 209.402344 174.183594 210.089844 170.296875 210.632812 169.65625 Z M 165.03125 156.101562 C 165.347656 156.351562 165.757812 156.476562 166.261719 156.476562 C 166.789062 156.476562 167.410156 156.339844 168.132812 156.070312 C 169.007812 155.746094 171.15625 154.710938 171.839844 153.5 C 173.59375 152.007812 175.070312 150.105469 176.25 148.332031 C 176.351562 148.179688 176.140625 148.054688 176.019531 148.152344 C 174.566406 149.289062 173.023438 150.285156 171.542969 151.375 C 171.160156 150.84375 170.609375 150.359375 170.050781 149.988281 C 168.3125 148.816406 166.464844 148.632812 165.109375 149.496094 C 164.152344 150.105469 163.933594 151.53125 163.894531 152.324219 C 163.828125 153.589844 164.085938 155.34375 165.03125 156.101562 Z M 166.121094 151.070312 C 166.785156 150.648438 167.613281 150.851562 168.195312 151.089844 C 169.105469 151.46875 169.75 152.082031 170.03125 152.472656 C 169.238281 153.035156 168.421875 153.609375 167.683594 154.238281 C 167.042969 154.507812 166.453125 154.667969 166.167969 154.609375 C 166.011719 154.425781 165.757812 153.738281 165.757812 152.714844 C 165.757812 151.761719 165.992188 151.175781 166.121094 151.070312 Z M 259.3125 219.90625 C 260.347656 219.90625 261.398438 219.773438 262.207031 219.578125 C 264.335938 219.058594 264.964844 218.140625 265.117188 217.457031 C 265.566406 215.433594 262.097656 212.789062 260.023438 211.882812 C 258.75 211.320312 257.921875 211.332031 257.378906 211.570312 C 257.261719 210.496094 256.964844 209.449219 256.425781 208.460938 C 256.292969 208.222656 255.929688 208.386719 255.996094 208.644531 C 256.667969 211.328125 255.648438 214.082031 254.929688 216.640625 C 254.25 219.046875 253.855469 221.480469 253.546875 223.960938 C 253.527344 224.109375 253.761719 224.164062 253.824219 224.035156 C 254.527344 222.550781 255.332031 220.875 256.011719 219.128906 C 256.734375 219.695312 258.011719 219.90625 259.3125 219.90625 Z M 261.421875 214.90625 C 262.828125 216 263.289062 216.851562 263.292969 217.042969 C 263.261719 217.132812 262.886719 217.507812 261.664062 217.789062 C 259.613281 218.257812 257.523438 217.988281 257.179688 217.675781 C 256.671875 217.0625 257.550781 214.28125 258.183594 213.28125 C 258.589844 213.261719 259.921875 213.738281 261.421875 214.90625 Z M 136.234375 168.175781 C 133.457031 165.558594 132.238281 161.769531 132.128906 158.050781 C 132.101562 157.109375 133.4375 157.171875 133.546875 158.050781 C 133.980469 161.585938 135.152344 164.792969 136.398438 168.085938 C 136.433594 168.175781 136.304688 168.238281 136.234375 168.175781 Z M 202.726562 192.515625 C 201.175781 194.597656 199.5625 196.707031 197.035156 197.585938 C 195.03125 198.289062 191.945312 198.390625 190.675781 196.363281 C 190.527344 196.132812 190.722656 195.828125 190.988281 195.824219 C 193.289062 195.804688 195.109375 196.164062 197.328125 195.191406 C 199.160156 194.390625 200.824219 193.402344 202.429688 192.222656 C 202.597656 192.089844 202.855469 192.34375 202.726562 192.515625 Z M 224.519531 156.496094 C 224.214844 155.476562 224.367188 154.582031 224.722656 153.585938 C 225.085938 152.585938 225.511719 151.496094 226.148438 150.632812 C 226.304688 150.417969 226.710938 150.398438 226.769531 150.714844 C 226.976562 151.789062 226.832031 153.042969 226.574219 154.097656 C 226.3125 155.179688 225.867188 156.046875 224.925781 156.660156 C 224.773438 156.765625 224.566406 156.660156 224.519531 156.496094 Z M 208.648438 120.195312 C 208.300781 117.414062 207.273438 114.824219 207.152344 111.996094 C 207.152344 111.96875 207.183594 111.949219 207.207031 111.964844 C 210.035156 113.882812 210.078125 117.308594 208.957031 120.238281 C 208.890625 120.410156 208.671875 120.371094 208.648438 120.195312 Z M 148.390625 174.304688 C 148.429688 174.371094 148.351562 174.460938 148.28125 174.414062 C 147.042969 173.542969 146.007812 172.546875 145.164062 171.273438 C 144.226562 169.867188 143.894531 168.625 143.832031 166.976562 C 143.820312 166.6875 144.230469 166.589844 144.371094 166.832031 C 145.789062 169.265625 146.914062 171.890625 148.390625 174.304688 Z M 140.699219 140.304688 C 139.757812 138.867188 139.078125 137.796875 139.066406 136 C 139.058594 134.550781 139.492188 132.8125 140.28125 131.589844 C 140.351562 131.476562 140.515625 131.523438 140.523438 131.65625 C 140.609375 133.09375 140.617188 134.546875 140.699219 136 C 140.785156 137.417969 140.652344 138.882812 140.785156 140.289062 C 140.789062 140.332031 140.722656 140.339844 140.699219 140.304688 Z M 122.792969 242.664062 C 122.824219 242.707031 122.769531 242.773438 122.726562 242.753906 C 120.746094 242 118.976562 240.734375 117.574219 239.15625 C 116.535156 237.988281 114.535156 235.957031 115.058594 234.269531 C 115.113281 234.105469 115.269531 234.019531 115.4375 234.054688 C 116.214844 234.226562 116.5625 234.695312 117.007812 235.332031 C 117.664062 236.261719 118.367188 237.152344 119.085938 238.035156 C 120.339844 239.570312 121.613281 241.082031 122.792969 242.664062 Z M 175.835938 247.988281 C 174.597656 249.6875 173.214844 250.222656 171.183594 250.5625 C 169.878906 250.78125 168.523438 250.957031 167.324219 251.550781 C 166.222656 252.097656 165.328125 252.960938 164.34375 253.6875 C 161.636719 255.679688 155.976562 256.378906 154.8125 252.214844 C 154.78125 252.09375 154.90625 252.023438 155.003906 252.066406 C 156.796875 252.851562 158.617188 253.824219 160.640625 253.457031 C 162.644531 253.09375 163.945312 251.429688 165.5625 250.351562 C 166.953125 249.421875 168.523438 249.082031 170.152344 248.832031 C 171.910156 248.558594 174.0625 248.550781 175.703125 247.855469 C 175.777344 247.828125 175.898438 247.902344 175.835938 247.988281 Z M 177.691406 234.371094 C 177.542969 234.332031 177.570312 234.144531 177.691406 234.101562 C 179.234375 233.5 180.28125 232.066406 181.277344 230.796875 C 182.316406 229.46875 183.601562 228.4375 184.714844 227.199219 C 184.828125 227.074219 185.003906 227.234375 184.9375 227.367188 C 183.488281 230.132812 181.917969 235.40625 177.691406 234.371094 Z M 147.847656 239.757812 C 147.957031 239.804688 147.902344 239.996094 147.789062 239.984375 C 144.804688 239.667969 141.550781 238.84375 139.453125 236.527344 C 139.152344 236.195312 139.4375 235.523438 139.929688 235.710938 C 142.691406 236.75 145.164062 238.535156 147.847656 239.757812 Z M 104.78125 193.875 C 104.390625 196.480469 104.007812 199.550781 104.539062 202.160156 C 104.601562 202.476562 104.179688 202.582031 104.066406 202.292969 C 103.175781 200.046875 102.402344 198.101562 102.617188 195.617188 C 102.730469 194.316406 102.839844 191.964844 104.40625 191.632812 C 105.144531 191.472656 104.808594 193.679688 104.78125 193.875 Z M 269.777344 239.664062 C 269.742188 242.132812 268.804688 244.394531 267.3125 246.335938 C 266.679688 247.160156 265.941406 247.886719 265.265625 248.675781 C 264.203125 249.914062 264.019531 251.25 263.792969 252.816406 C 263.476562 254.984375 263.039062 256.84375 261.542969 258.515625 C 260.441406 259.753906 258.910156 261.101562 257.152344 260.707031 C 256.988281 260.667969 256.90625 260.460938 256.992188 260.320312 C 257.988281 258.730469 259.808594 257.914062 260.894531 256.332031 C 261.515625 255.421875 262.117188 254.464844 262.386719 253.394531 C 262.636719 252.386719 262.695312 251.339844 262.996094 250.34375 C 263.53125 248.585938 264.640625 247.339844 265.769531 245.949219 C 267.335938 244.011719 268.464844 241.800781 269.632812 239.621094 C 269.664062 239.554688 269.777344 239.582031 269.777344 239.664062 Z M 253.460938 257.449219 C 251.992188 260.011719 249.730469 263.269531 246.332031 261.738281 C 246.136719 261.652344 246.1875 261.3125 246.390625 261.273438 C 248.886719 260.839844 250.464844 258.429688 251.628906 256.378906 C 252.304688 255.195312 254.140625 256.265625 253.460938 257.449219 Z M 203.714844 254.144531 C 202.605469 255.046875 201.386719 255.878906 200.042969 256.375 C 198.445312 256.964844 197.234375 256.875 195.679688 256.332031 C 195.480469 256.261719 195.449219 255.949219 195.679688 255.894531 C 196.898438 255.601562 198 255.292969 199.261719 255.128906 C 200.820312 254.925781 202.183594 254.671875 203.632812 254.035156 C 203.695312 254 203.78125 254.085938 203.714844 254.144531 Z M 227.433594 264.488281 C 226.539062 266.042969 225.21875 267.300781 223.417969 267.632812 C 221.851562 267.921875 220.054688 267.761719 219.15625 266.3125 C 219.085938 266.203125 219.179688 266.085938 219.289062 266.078125 C 222.09375 265.855469 224.925781 266.519531 227.167969 264.289062 C 227.304688 264.15625 227.527344 264.328125 227.433594 264.488281 Z M 221.78125 235.742188 C 220.1875 237.160156 218.238281 238.5625 216.085938 238.902344 C 214.46875 239.15625 212.152344 238.898438 211.105469 237.5 C 211.089844 237.480469 211.101562 237.453125 211.121094 237.441406 C 212.550781 236.757812 214.472656 237.460938 216.042969 237.179688 C 217.976562 236.832031 219.710938 236.003906 221.53125 235.316406 C 221.773438 235.230469 221.964844 235.578125 221.78125 235.742188 Z M 243.222656 185.445312 C 243.292969 184.273438 243.5625 183.089844 243.816406 181.941406 C 244.105469 180.601562 244.597656 179.050781 244.605469 177.679688 C 244.605469 177.554688 244.773438 177.542969 244.8125 177.652344 C 245.375 179.21875 245.851562 180.320312 245.652344 182.046875 C 245.496094 183.390625 244.820312 184.796875 243.777344 185.671875 C 243.574219 185.835938 243.203125 185.746094 243.222656 185.445312 Z M 219.078125 187.917969 C 220.316406 187.3125 221.496094 186.667969 222.554688 185.777344 C 222.648438 185.699219 222.800781 185.800781 222.734375 185.917969 C 221.476562 188.054688 219.144531 190.980469 216.308594 190.125 C 216.164062 190.078125 216.128906 189.910156 216.222656 189.800781 C 217.046875 188.851562 217.984375 188.449219 219.078125 187.917969 Z M 160.167969 178.835938 C 159.171875 180.894531 159.242188 185.539062 159.269531 186.597656 C 159.417969 191.890625 160.511719 192.4375 160.917969 192.640625 L 161.398438 192.882812 L 161.851562 192.585938 C 163.925781 191.214844 170.347656 186.726562 170.636719 183.363281 C 173 185.007812 175.152344 186.910156 177.460938 188.695312 C 177.496094 188.722656 177.570312 188.699219 177.546875 188.644531 C 176.152344 185.132812 173.082031 182.496094 169.886719 180.617188 C 169.570312 180.429688 169.246094 180.261719 168.914062 180.089844 C 168.160156 179.457031 167.308594 179 166.679688 178.714844 C 165.175781 178.027344 163.28125 177.550781 161.933594 177.671875 C 160.582031 177.386719 159.25 177.046875 158.160156 176.175781 C 157.75 175.847656 157.160156 176.246094 157.414062 176.75 C 157.996094 177.871094 159.039062 178.445312 160.167969 178.835938 Z M 168.769531 183.035156 C 169.054688 184.441406 165.398438 187.875 161.601562 190.503906 C 161.347656 189.648438 161.101562 187.867188 161.125 185.296875 C 161.152344 182.09375 161.570312 180.039062 161.863281 179.566406 C 161.988281 179.527344 162.199219 179.507812 162.472656 179.519531 C 164.0625 179.988281 165.617188 180.515625 167.121094 181.261719 C 167.367188 181.382812 167.605469 181.511719 167.847656 181.636719 C 168.355469 182.09375 168.679688 182.574219 168.769531 183.035156 Z M 123.175781 198.039062 C 122.695312 196.132812 122.167969 195.214844 121.636719 194.800781 C 121.558594 194.664062 121.472656 194.523438 121.390625 194.394531 C 120.945312 193.671875 120.097656 192.828125 119.808594 192.039062 C 119.792969 192.003906 119.730469 191.984375 119.710938 192.03125 C 119.339844 192.777344 119.652344 193.382812 119.980469 194.105469 C 120.046875 194.25 120.105469 194.40625 120.171875 194.550781 C 118.085938 195.074219 113.988281 198.371094 112.023438 200.886719 C 110.640625 202.65625 110.09375 204.175781 110.398438 205.40625 C 110.652344 206.414062 111.792969 206.800781 114.570312 206.800781 C 114.695312 206.800781 114.824219 206.800781 114.957031 206.796875 C 116.964844 206.773438 119.375 206.558594 121.042969 206.382812 C 121.832031 206.300781 122.546875 205.949219 123.089844 205.382812 C 123.296875 207.089844 123.410156 208.8125 123.472656 210.554688 C 123.476562 210.683594 123.65625 210.710938 123.699219 210.585938 C 124.621094 207.542969 124.691406 204.195312 124.046875 201.09375 C 123.835938 200.058594 123.539062 199.03125 123.175781 198.039062 Z M 121.839844 203.984375 C 121.59375 204.292969 121.246094 204.484375 120.851562 204.527344 C 115.28125 205.109375 112.875 204.949219 112.1875 204.730469 C 112.175781 204.152344 112.566406 203.289062 113.289062 202.308594 C 115.4375 199.394531 119.457031 196.628906 120.554688 196.363281 C 120.777344 196.640625 121.496094 197.902344 122.140625 202.902344 C 122.191406 203.292969 122.082031 203.679688 121.839844 203.984375 Z M 174.191406 201.746094 C 171.0625 203.460938 167.640625 202.792969 165.15625 200.394531 C 165.082031 200.328125 165.15625 200.175781 165.257812 200.21875 C 168.003906 201.34375 171.15625 201.644531 174.089844 201.371094 C 174.292969 201.351562 174.355469 201.652344 174.191406 201.746094 Z M 174.191406 201.746094 " fill-opacity="1" fill-rule="nonzero"/></g></svg>