<svg xmlns="http://www.w3.org/2000/svg" xmlns:xlink="http://www.w3.org/1999/xlink" width="500" zoomAndPan="magnify" viewBox="0 0 375 374.999991" height="500" preserveAspectRatio="xMidYMid meet" version="1.0"><defs><clipPath id="de82627e5e"><path d="M 54.382812 162 L 320.632812 162 L 320.632812 362.59375 L 54.382812 362.59375 Z M 54.382812 162 " clip-rule="nonzero"/></clipPath></defs><g clip-path="url(#de82627e5e)"><path fill="#ff5757" d="M 199.5 163.035156 C 249.183594 167.664062 286.214844 195.847656 306.886719 224.878906 C 327.558594 253.910156 319.132812 354.921875 319.132812 354.921875 C 319.132812 354.921875 295.28125 352.085938 264.28125 349.378906 C 210.515625 344.695312 135.207031 340.398438 125.25 351.914062 C 109.550781 370.0625 63.722656 364.144531 56.117188 342.148438 C 48.023438 318.746094 70.597656 229.621094 76.671875 211.503906 C 82.746094 193.386719 161.238281 159.457031 199.5 163.035156 " fill-opacity="1" fill-rule="evenodd"/></g><path fill="#ffe6b4" d="M 141.46875 68.453125 C 141.410156 68.453125 141.367188 68.425781 141.296875 68.382812 Z M 141.46875 68.453125 C 141.824219 68.425781 141.738281 66.894531 142.054688 66.335938 C 142.742188 65.101562 143.730469 64.085938 144.761719 63.140625 C 148.199219 59.960938 151.984375 57.070312 155.949219 54.578125 C 170.890625 45.179688 203.195312 45.410156 207.867188 66.175781 C 208.625 69.527344 208.828125 72.894531 208.796875 76.273438 C 211.21875 79.269531 213.46875 82.488281 214.988281 85.957031 C 215.128906 85.839844 215.246094 85.769531 215.316406 85.726562 C 219.371094 82.917969 227.964844 79.109375 232.792969 82.074219 C 237.347656 84.882812 235.703125 92.457031 235.515625 96.828125 C 234.8125 112.066406 221.835938 114.816406 221.835938 114.816406 C 221.835938 114.816406 216.675781 140.222656 216.777344 148.742188 C 216.890625 157.007812 222.964844 167.664062 222.964844 167.664062 C 222.78125 174.238281 194.972656 216.488281 172.554688 199.730469 C 169.300781 197.296875 161.265625 189.132812 161.679688 184.734375 C 162.453125 176.472656 165.191406 168.792969 165.347656 160.359375 C 165.363281 159.339844 165.363281 158.339844 165.347656 157.324219 C 154.5625 150.761719 147.828125 135.984375 146.09375 123.578125 C 144.976562 115.644531 145.550781 107.78125 143.800781 99.847656 C 142.199219 92.542969 139.707031 85.769531 140.492188 78.179688 C 140.75 75.703125 141.167969 73.253906 141.683594 70.816406 C 141.824219 70.128906 141.96875 69.429688 142.140625 68.742188 L 141.46875 68.453125 " fill-opacity="1" fill-rule="evenodd"/><path fill="#100f0d" d="M 152.929688 169.925781 L 184.144531 196.550781 C 195.691406 194.816406 222.464844 164.367188 222.921875 164.226562 C 223.695312 163.996094 229.585938 167.921875 230.585938 168.722656 C 231.101562 169.125 216.277344 220.28125 216.234375 220.222656 C 214.988281 218.71875 186.035156 203.324219 186.035156 203.324219 L 154.960938 231.265625 L 143.875 199.65625 L 152.929688 169.925781 " fill-opacity="1" fill-rule="evenodd"/><path fill="#ffc709" d="M 182.125 185.207031 C 183.113281 185.121094 184.015625 185.25 184.542969 185.75 C 185.347656 186.496094 184.917969 188.628906 184.859375 189.546875 C 184.660156 193.128906 184.328125 198.425781 181.320312 200.890625 C 178.859375 202.921875 174.601562 203.023438 171.609375 203.222656 C 164.359375 203.710938 157.109375 205.773438 149.863281 204.484375 C 139.347656 202.59375 128.917969 198.097656 119.0625 194.160156 C 115.195312 192.613281 110.109375 192.066406 106.84375 189.332031 C 102.960938 186.066406 104.9375 180.910156 108.390625 178.230469 C 113.015625 174.625 117.144531 174.894531 122.199219 175.65625 L 167.296875 129.109375 C 167.296875 129.109375 172.441406 130.753906 175.089844 130.753906 C 177.738281 130.769531 183.242188 129.164062 183.242188 129.164062 L 182.125 185.207031 " fill-opacity="1" fill-rule="evenodd"/><path fill="#ffe6b4" d="M 126.125 181.839844 C 126.667969 181.699219 129.90625 183.761719 136.953125 181.925781 C 142.886719 180.394531 147.714844 187.941406 151.039062 189.789062 C 153.402344 191.109375 160.046875 191.410156 158.902344 194.1875 C 157.324219 197.980469 149.847656 203.796875 141.609375 212.578125 C 140.964844 213.25 157.3125 243.140625 140.449219 261.085938 C 135.835938 265.996094 133.746094 272.15625 132.929688 272 C 114.59375 268.433594 103.175781 260.484375 103.175781 260.484375 C 103.175781 260.484375 106.929688 252.605469 105.640625 245.171875 C 103.664062 233.800781 100.382812 214.941406 100.082031 214.308594 C 100.050781 214.28125 100.007812 214.238281 99.964844 214.195312 C 97.917969 212.160156 105.136719 208.496094 109.78125 196.679688 C 111.683594 191.851562 117.5 188.214844 122.386719 185.007812 C 124.5625 183.574219 125.59375 181.96875 126.125 181.839844 " fill-opacity="1" fill-rule="evenodd"/><path fill="#b41d23" d="M 146.984375 161.675781 C 144.847656 160.34375 141.425781 161.933594 139.347656 165.242188 C 137.269531 168.550781 137.3125 172.316406 139.449219 173.664062 C 141.597656 175.011719 145.019531 173.40625 147.097656 170.097656 C 149.175781 166.789062 149.132812 163.023438 146.984375 161.675781 Z M 175.40625 138.503906 C 173.011719 138.503906 171.078125 141.96875 171.078125 146.238281 C 171.078125 150.503906 173.011719 153.972656 175.40625 153.972656 C 177.78125 153.972656 179.730469 150.503906 179.730469 146.238281 C 179.730469 141.96875 177.78125 138.503906 175.40625 138.503906 Z M 162.984375 172.832031 C 161.367188 172.832031 160.0625 174.679688 160.0625 176.957031 C 160.0625 179.234375 161.367188 181.082031 162.984375 181.082031 C 164.601562 181.082031 165.921875 179.234375 165.921875 176.957031 C 165.921875 174.679688 164.601562 172.832031 162.984375 172.832031 Z M 158.402344 155.632812 C 156.753906 154.960938 156.28125 152.28125 157.339844 149.660156 C 158.402344 147.023438 160.621094 145.433594 162.269531 146.109375 C 163.914062 146.765625 164.386719 149.445312 163.328125 152.082031 C 162.253906 154.703125 160.0625 156.304688 158.402344 155.632812 " fill-opacity="1" fill-rule="evenodd"/><path fill="#100f0d" d="M 150.292969 204.5 C 150.292969 204.5 141.410156 210.859375 141.511719 213.222656 C 141.683594 217.832031 147.457031 233.574219 147.542969 241.0625 C 147.613281 247.0625 146.554688 253.695312 142.082031 258.175781 C 138.945312 261.328125 136.296875 266.554688 136.296875 266.554688 C 136.296875 266.554688 136.382812 266.640625 136.4375 266.699219 C 136.4375 266.828125 136.4375 266.957031 136.511719 267.058594 C 137.585938 268.746094 139.976562 270.667969 141.039062 273.160156 C 141.28125 273.703125 141.410156 274.277344 141.46875 274.875 C 141.367188 275.835938 141.238281 276.710938 141.066406 277.539062 C 141.066406 277.570312 141.066406 277.582031 141.050781 277.613281 C 137.714844 285.746094 135.835938 292.707031 134.761719 298.636719 C 134.03125 302.761719 133.675781 306.398438 133.460938 309.566406 C 133.144531 314.03125 133.101562 317.570312 132.570312 320.320312 C 131.484375 326.191406 130.867188 331.164062 129.460938 336.1875 C 128.574219 339.382812 127.355469 342.589844 125.480469 346.070312 C 125.308594 346.386719 125.421875 346.789062 125.753906 346.960938 C 125.925781 347.058594 126.109375 347.046875 126.28125 346.988281 C 126.226562 347.1875 126.167969 347.375 126.109375 347.574219 C 126.011719 348.019531 125.636719 351.527344 127.484375 350.496094 C 136.566406 345.457031 135.722656 328.210938 137.3125 319.890625 C 139.277344 309.664062 142.769531 299.238281 143.730469 288.855469 C 144.105469 284.816406 145.035156 279.804688 144.933594 275.808594 C 144.835938 271.453125 141.082031 269.277344 142.570312 265.210938 C 143.472656 262.746094 150.964844 254.355469 152.140625 245.558594 C 153.058594 238.785156 150.878906 230.378906 149.675781 226.253906 C 147.570312 219.035156 149.648438 204.742188 150.292969 204.5 Z M 132.355469 295.515625 C 132.257812 295.171875 131.898438 294.96875 131.539062 295.070312 C 127.859375 296.03125 123.933594 296.03125 120.023438 295.484375 C 117.144531 295.070312 114.277344 294.339844 111.5 293.4375 C 110.367188 293.082031 109.261719 292.695312 108.160156 292.292969 C 106.46875 291.664062 104.824219 291.003906 103.261719 290.300781 C 102.113281 289.785156 100.984375 289.183594 99.878906 288.511719 C 98.792969 287.839844 97.730469 287.09375 96.757812 286.292969 C 96.441406 286.046875 95.882812 285.675781 95.453125 285.246094 C 95.222656 285.03125 95.007812 284.816406 94.964844 284.601562 C 94.894531 284.285156 94.59375 284.085938 94.292969 284.144531 C 93.976562 284.214844 93.761719 284.515625 93.835938 284.832031 C 93.890625 285.160156 94.09375 285.503906 94.351562 285.847656 C 94.808594 286.421875 95.527344 286.980469 95.882812 287.308594 C 96.871094 288.195312 97.933594 289.042969 99.050781 289.800781 C 100.167969 290.574219 101.339844 291.261719 102.53125 291.847656 C 104.707031 292.910156 107.042969 293.9375 109.480469 294.796875 C 111.84375 295.628906 114.304688 296.289062 116.785156 296.761719 C 121.898438 297.707031 127.128906 297.761719 131.898438 296.332031 C 132.257812 296.230469 132.457031 295.871094 132.355469 295.515625 Z M 102.53125 259.179688 C 102.515625 259.195312 102.515625 259.207031 102.515625 259.238281 L 102.53125 259.207031 Z M 103.761719 259.824219 C 103.707031 259.765625 103.648438 259.710938 103.605469 259.652344 C 103.632812 259.609375 103.648438 259.582031 103.664062 259.566406 C 103.734375 259.292969 103.648438 259.09375 103.5625 259.007812 C 103.460938 258.878906 103.246094 258.648438 102.847656 258.835938 C 102.6875 258.90625 102.589844 259.035156 102.53125 259.179688 C 102.546875 259.179688 102.546875 259.179688 102.574219 259.179688 C 102.617188 259.207031 102.589844 259.28125 102.53125 259.367188 C 102.53125 259.324219 102.515625 259.28125 102.515625 259.238281 C 102.503906 259.292969 102.503906 259.351562 102.503906 259.394531 C 102.460938 259.464844 102.402344 259.539062 102.402344 259.59375 C 102.359375 259.765625 102.402344 259.910156 102.460938 260.023438 C 102.558594 260.253906 102.703125 260.453125 102.859375 260.65625 C 103.0625 260.882812 103.304688 261.097656 103.535156 261.300781 C 103.976562 261.714844 104.449219 262.085938 104.964844 262.417969 C 105.695312 262.917969 106.484375 263.332031 107.257812 263.734375 C 108.917969 264.578125 110.582031 265.4375 112.242188 266.253906 C 113.917969 267.070312 115.609375 267.875 117.328125 268.605469 C 119.621094 269.59375 121.957031 270.464844 124.347656 271.253906 C 125.78125 271.710938 127.257812 272.128906 128.746094 272.441406 C 130.238281 272.757812 131.753906 273 133.257812 273.128906 C 133.847656 273.1875 135.136719 273.214844 135.792969 272.757812 C 136.238281 272.457031 136.523438 272 136.382812 271.28125 C 136.324219 270.925781 135.980469 270.679688 135.621094 270.753906 C 135.265625 270.808594 135.019531 271.152344 135.078125 271.511719 C 135.09375 271.597656 135.035156 271.625 134.976562 271.65625 C 134.835938 271.710938 134.664062 271.742188 134.492188 271.742188 C 134.089844 271.769531 133.675781 271.726562 133.429688 271.699219 C 131.984375 271.496094 130.539062 271.210938 129.117188 270.851562 C 127.6875 270.496094 126.28125 270.050781 124.90625 269.5625 C 122.585938 268.746094 120.335938 267.800781 118.089844 266.84375 C 116.382812 266.113281 114.691406 265.382812 113.015625 264.621094 C 111.3125 263.863281 109.621094 263.117188 107.929688 262.34375 C 107.171875 262.015625 106.414062 261.65625 105.695312 261.242188 C 105.238281 260.984375 104.78125 260.683594 104.363281 260.339844 C 104.179688 260.183594 103.949219 260.011719 103.761719 259.824219 Z M 267.804688 339.398438 C 267.804688 339.367188 267.777344 339.367188 267.734375 339.382812 C 267.746094 339.382812 267.761719 339.382812 267.777344 339.398438 C 267.777344 339.398438 267.804688 339.398438 267.804688 339.398438 Z M 294.449219 246.492188 C 290.195312 252.734375 284.765625 258.835938 280.441406 265.382812 C 278.578125 268.175781 276.929688 271.054688 275.667969 274.0625 C 275.167969 275.261719 274.753906 276.523438 274.378906 277.8125 C 274.25 279.03125 274.121094 280.160156 274.007812 280.992188 C 273.894531 281.78125 273.808594 282.351562 273.734375 282.609375 C 273.605469 283.082031 273.277344 283.199219 273.175781 283.210938 C 273.175781 283.210938 273.175781 283.199219 273.175781 283.210938 C 273.035156 284.027344 272.890625 284.859375 272.777344 285.703125 C 271.929688 291.863281 271.746094 298.277344 271.101562 303.992188 C 270.527344 308.777344 269.941406 313.558594 269.410156 318.34375 C 269.066406 321.539062 268.75 324.71875 268.492188 327.925781 C 268.390625 329.300781 268.304688 330.675781 268.21875 332.050781 C 268.148438 333.425781 268.089844 334.8125 268.0625 336.1875 C 268.035156 337.046875 268.679688 338.667969 268.691406 339.46875 C 268.691406 339.96875 268.507812 340.300781 268.234375 340.441406 C 268.046875 340.542969 267.804688 340.601562 267.460938 340.5 C 267.160156 340.414062 266.972656 340.097656 267.058594 339.796875 C 267.117188 339.570312 267.304688 339.410156 267.503906 339.382812 C 267.433594 338.523438 266.800781 337.003906 266.800781 336.175781 C 266.800781 334.785156 266.832031 333.382812 266.875 331.992188 C 266.917969 330.605469 266.972656 329.214844 267.058594 327.824219 C 267.246094 324.601562 267.488281 321.394531 267.777344 318.1875 C 268.21875 313.386719 268.75 308.589844 269.253906 303.792969 C 269.882812 298.050781 270.039062 291.621094 270.898438 285.433594 C 271.371094 282.039062 272.089844 278.714844 273.164062 275.621094 C 273.335938 273.085938 273.507812 270.351562 273.648438 268.316406 C 273.777344 266.46875 273.921875 265.167969 273.980469 264.980469 C 274.738281 262.632812 275.539062 260.3125 276.414062 258.019531 C 277.746094 254.582031 279.222656 251.21875 280.8125 247.894531 C 283.464844 242.378906 286.441406 237.039062 289.695312 231.796875 C 289.882812 231.480469 290.296875 231.382812 290.597656 231.566406 C 290.914062 231.753906 291.011719 232.167969 290.828125 232.484375 C 287.730469 237.753906 284.953125 243.140625 282.445312 248.652344 C 280.925781 251.960938 279.539062 255.3125 278.21875 258.722656 C 277.347656 260.96875 276.488281 263.246094 275.699219 265.554688 C 275.613281 265.796875 275.382812 268.273438 275.082031 271.253906 C 276.242188 268.933594 277.546875 266.65625 279.050781 264.449219 C 283.476562 257.960938 289.019531 251.917969 293.363281 245.746094 C 293.5625 245.445312 293.976562 245.375 294.277344 245.574219 C 294.578125 245.789062 294.652344 246.203125 294.449219 246.492188 Z M 98.40625 258.234375 C 99.566406 256.328125 101.382812 255.199219 104.707031 254.453125 C 105.023438 254.382812 105.222656 254.082031 105.167969 253.765625 C 105.09375 253.464844 104.792969 253.25 104.480469 253.324219 C 100.667969 254.054688 98.589844 255.339844 97.203125 257.476562 C 95.582031 259.953125 94.9375 263.664062 93.5625 269.277344 C 93.375 270.023438 93.132812 270.738281 92.902344 271.453125 C 92.015625 272.527344 90.839844 274.203125 90.367188 274.734375 C 88.019531 277.425781 84.96875 279.589844 82.03125 281.59375 C 73.707031 287.238281 63.308594 297.589844 63.449219 308.148438 C 63.523438 312.789062 66.542969 306.65625 67.402344 308.390625 C 68.492188 310.625 65.3125 317.542969 67.015625 315.765625 C 67.261719 315.507812 67.5625 315.078125 67.878906 314.535156 C 68.007812 314.460938 68.136719 314.390625 68.191406 314.246094 C 71.316406 307.902344 75.886719 302.089844 80.382812 296.214844 C 83.40625 292.292969 86.398438 288.367188 88.964844 284.273438 C 90.097656 282.453125 91.140625 280.605469 92.058594 278.714844 C 93.449219 275.808594 94.566406 272.800781 95.253906 269.679688 C 96.441406 264.25 96.914062 260.65625 98.40625 258.234375 Z M 181.464844 184.492188 C 178.65625 184.648438 172.640625 184.890625 165.492188 184.578125 C 160.550781 184.347656 155.046875 183.859375 149.691406 182.828125 C 145.921875 182.171875 142.226562 181.253906 138.832031 180.292969 C 132.386719 178.488281 127.042969 176.515625 124.5625 175.46875 C 123.890625 175.183594 123.445312 174.980469 123.230469 174.867188 L 123.1875 174.851562 C 123.117188 174.78125 123.015625 174.722656 122.902344 174.710938 C 122.585938 174.667969 122.285156 174.882812 122.242188 175.183594 C 122.226562 175.253906 122.199219 175.597656 122.601562 175.839844 C 122.742188 175.941406 123.074219 176.097656 123.546875 176.34375 C 125.152344 177.101562 128.558594 178.605469 132.988281 180.179688 C 135.40625 181.054688 138.144531 181.957031 141.066406 182.773438 C 143.703125 183.515625 146.496094 184.175781 149.332031 184.71875 C 154.804688 185.695312 160.390625 186.152344 165.433594 186.28125 C 172.65625 186.46875 178.714844 186.039062 181.550781 185.808594 C 181.921875 185.78125 182.195312 185.464844 182.167969 185.105469 C 182.136719 184.734375 181.824219 184.460938 181.464844 184.492188 Z M 131.140625 205.242188 C 130.421875 205.875 129.878906 206.53125 129.691406 207.046875 C 129.460938 207.664062 129.332031 208.367188 129.246094 209.097656 C 129.089844 210.558594 129.160156 212.175781 129.003906 213.449219 C 128.730469 215.554688 128.417969 217.660156 128.015625 219.75 C 127.628906 221.84375 127.15625 223.917969 126.582031 225.96875 C 126.484375 226.3125 126.683594 226.683594 127.027344 226.785156 C 127.371094 226.882812 127.742188 226.683594 127.84375 226.339844 C 128.503906 224.277344 129.0625 222.1875 129.535156 220.066406 C 130.007812 217.960938 130.394531 215.828125 130.722656 213.695312 C 130.925781 212.40625 130.894531 210.785156 131.082031 209.3125 C 131.167969 208.738281 131.269531 208.195312 131.453125 207.707031 C 131.570312 207.390625 131.957031 207.0625 132.398438 206.675781 C 133.574219 205.671875 135.234375 204.597656 135.878906 204.027344 C 137.085938 202.9375 138.300781 201.835938 139.503906 200.730469 C 141.296875 199.054688 143.070312 197.382812 144.863281 195.707031 L 147.984375 192.710938 C 148.371094 192.339844 149.359375 191.996094 149.71875 191.652344 C 149.992188 191.394531 150.078125 191.109375 150.019531 190.851562 C 149.992188 190.691406 149.90625 190.507812 149.71875 190.347656 C 149.476562 190.132812 149.117188 190.164062 148.902344 190.40625 C 148.789062 190.535156 148.746094 190.707031 148.773438 190.863281 C 148.601562 190.949219 148.34375 191.078125 148.15625 191.164062 C 147.757812 191.351562 147.339844 191.550781 147.113281 191.765625 L 143.84375 194.589844 L 134.605469 202.609375 C 133.976562 203.167969 132.3125 204.226562 131.140625 205.242188 Z M 142.285156 184.347656 C 141.984375 184.246094 141.652344 184.40625 141.554688 184.707031 C 141.410156 185.105469 140.910156 185.566406 140.320312 186.066406 C 138.945312 187.226562 136.996094 188.445312 136.28125 189.101562 C 134.863281 190.390625 133.460938 191.695312 132.085938 193.042969 C 130.480469 194.574219 128.890625 196.148438 127.3125 197.710938 C 125.722656 199.257812 124.148438 200.816406 122.542969 202.320312 C 122.128906 202.707031 121.769531 203.554688 121.570312 204.585938 C 121.238281 206.160156 121.152344 208.238281 120.980469 209.011719 C 120.335938 212.089844 119.707031 215.167969 119.035156 218.246094 C 118.589844 220.296875 118.117188 222.34375 117.617188 224.378906 C 117.53125 224.722656 117.730469 225.09375 118.089844 225.179688 C 118.445312 225.28125 118.804688 225.066406 118.890625 224.707031 C 119.464844 222.6875 120.007812 220.640625 120.507812 218.589844 C 121.28125 215.542969 121.984375 212.460938 122.730469 209.398438 C 122.886719 208.722656 123.015625 207.035156 123.273438 205.558594 C 123.359375 205.058594 123.476562 204.597656 123.605469 204.210938 C 123.675781 203.996094 123.734375 203.8125 123.832031 203.710938 C 125.238281 202.40625 126.613281 201.089844 127.972656 199.730469 C 129.546875 198.140625 131.097656 196.535156 132.644531 194.933594 C 134.191406 193.34375 135.722656 191.738281 137.300781 190.191406 C 137.988281 189.503906 139.863281 188.230469 141.167969 187.011719 C 141.910156 186.308594 142.484375 185.621094 142.640625 185.078125 C 142.757812 184.777344 142.585938 184.449219 142.285156 184.347656 Z M 107.960938 221.855469 C 108.304688 221.984375 108.675781 221.8125 108.804688 221.46875 C 109.738281 219.121094 110.597656 216.742188 111.398438 214.367188 C 112.199219 211.976562 112.945312 209.554688 113.632812 207.121094 C 113.949219 205.988281 114.164062 203.855469 114.605469 202.164062 C 114.792969 201.492188 114.980469 200.902344 115.28125 200.546875 C 116.914062 198.496094 118.976562 196.722656 121.109375 194.976562 C 123.246094 193.226562 125.464844 191.496094 127.484375 189.648438 C 129.304688 187.984375 130.96875 186.195312 132.242188 184.191406 C 132.414062 183.917969 132.34375 183.558594 132.085938 183.386719 C 131.8125 183.214844 131.453125 183.289062 131.28125 183.546875 C 130.410156 184.792969 129.363281 185.910156 128.230469 186.984375 C 125.550781 189.503906 122.34375 191.667969 119.40625 194 C 117.328125 195.632812 115.378906 197.394531 113.789062 199.34375 C 113.359375 199.886719 113.03125 200.71875 112.789062 201.691406 C 112.359375 203.394531 112.199219 205.53125 111.914062 206.660156 C 111.296875 209.097656 110.625 211.488281 109.910156 213.878906 C 109.175781 216.273438 108.402344 218.648438 107.574219 221.011719 C 107.445312 221.355469 107.617188 221.726562 107.960938 221.855469 Z M 217.265625 123.894531 C 214.773438 128.734375 212.550781 133.632812 210.015625 138.304688 C 208.066406 140.953125 206.003906 143.53125 203.882812 146.023438 C 198.484375 152.367188 194.34375 155.992188 191.191406 158.097656 C 190.605469 158.382812 190.03125 158.742188 189.429688 158.996094 C 188.800781 159.285156 188.167969 159.554688 187.523438 159.800781 C 186.894531 160.058594 186.25 160.285156 185.589844 160.5 C 185.246094 160.601562 184.542969 160.671875 184.101562 160.757812 C 183.898438 160.800781 183.8125 160.875 183.699219 160.929688 C 183.011719 160.917969 182.582031 160.832031 182.367188 160.929688 C 182.195312 161.003906 182.023438 178.503906 182.496094 178.105469 C 183.398438 177.332031 184.972656 175.769531 185.976562 175.140625 C 189.300781 173.0625 192.136719 170.414062 194.789062 167.535156 C 202.078125 159.671875 207.222656 150.246094 211.578125 140.492188 C 212.996094 137.328125 214.300781 134.136719 215.488281 130.882812 C 215.488281 130.871094 215.503906 130.839844 215.503906 130.828125 C 216.460938 128.722656 217.421875 126.601562 218.453125 124.480469 C 218.609375 124.167969 218.480469 123.765625 218.152344 123.59375 C 217.824219 123.4375 217.4375 123.566406 217.265625 123.894531 Z M 184.972656 122.535156 C 184.832031 122.648438 184.714844 122.804688 184.644531 122.933594 C 184.414062 123.335938 184.214844 123.738281 184.042969 124.167969 C 183.871094 124.582031 183.726562 125.011719 183.597656 125.441406 C 183.339844 126.34375 183.199219 127.289062 183.167969 128.234375 C 181.105469 129.066406 179.160156 129.410156 177.238281 129.421875 C 175.675781 129.453125 174.144531 129.222656 172.554688 128.90625 C 171.035156 128.621094 169.460938 128.261719 167.828125 127.804688 C 167.253906 127.660156 165.792969 127.433594 164.546875 127.101562 C 164.03125 126.960938 163.542969 126.816406 163.199219 126.628906 C 163.070312 126.558594 162.957031 126.53125 162.914062 126.445312 C 162.769531 126.15625 162.410156 126.058594 162.140625 126.199219 C 161.851562 126.34375 161.738281 126.6875 161.882812 126.972656 C 162.082031 127.390625 162.710938 127.832031 163.570312 128.207031 C 164.875 128.765625 166.695312 129.207031 167.324219 129.4375 C 168.714844 129.894531 170.03125 130.3125 171.351562 130.625 C 172.785156 130.957031 174.1875 131.15625 175.578125 131.199219 C 178.113281 131.285156 180.632812 130.839844 183.296875 129.636719 C 183.328125 129.910156 183.3125 130.183594 183.371094 130.453125 C 183.742188 132.128906 184.542969 133.707031 185.761719 134.953125 C 186.09375 135.265625 186.621094 135.78125 187.179688 136.140625 C 187.667969 136.457031 188.15625 136.671875 188.597656 136.65625 C 188.957031 136.671875 189.273438 136.382812 189.285156 136.027344 C 189.300781 135.652344 189.015625 135.351562 188.65625 135.339844 C 188.371094 135.308594 188.113281 135.066406 187.824219 134.824219 C 187.46875 134.492188 187.152344 134.121094 186.9375 133.863281 C 186.019531 132.789062 185.503906 131.457031 185.246094 130.082031 C 185.144531 129.523438 185.089844 128.949219 185.058594 128.390625 C 185.015625 127.519531 185.046875 126.660156 185.203125 125.828125 C 185.273438 125.425781 185.359375 125.027344 185.460938 124.640625 C 185.5625 124.253906 185.675781 123.867188 185.820312 123.507812 C 185.820312 123.507812 185.804688 123.523438 185.804688 123.523438 C 185.804688 123.523438 185.964844 123.335938 186.050781 123.234375 C 186.164062 123.105469 186.265625 122.976562 186.320312 122.847656 C 186.40625 122.605469 186.4375 122.363281 186.265625 122.117188 C 186.105469 121.847656 185.75 121.746094 185.476562 121.902344 C 185.332031 122.003906 185.230469 122.148438 185.203125 122.304688 C 185.203125 122.304688 185.230469 122.304688 185.246094 122.320312 C 185.289062 122.347656 185.246094 122.390625 185.1875 122.417969 C 185.132812 122.449219 185.015625 122.492188 184.972656 122.535156 Z M 156.59375 86.171875 C 155.792969 85.382812 154.976562 84.625 154.101562 83.949219 C 153.617188 83.578125 153.128906 83.234375 152.597656 82.917969 C 151.8125 82.460938 150.980469 82.089844 150.089844 81.789062 C 149.273438 81.53125 148.214844 81.257812 147.226562 81.214844 C 146.410156 81.171875 145.652344 81.257812 145.121094 81.574219 C 144.835938 81.703125 144.707031 82.058594 144.847656 82.332031 C 144.992188 82.617188 145.320312 82.746094 145.621094 82.605469 C 146.007812 82.460938 146.511719 82.53125 147.070312 82.632812 C 147.898438 82.789062 148.789062 83.132812 149.460938 83.433594 C 150.234375 83.75 150.921875 84.152344 151.609375 84.566406 C 152.082031 84.851562 152.542969 85.152344 152.984375 85.46875 C 154.734375 86.671875 156.351562 88.089844 157.984375 89.464844 C 158.257812 89.707031 158.671875 89.695312 158.917969 89.421875 C 159.160156 89.148438 159.144531 88.734375 158.875 88.492188 C 158.113281 87.71875 157.367188 86.929688 156.59375 86.171875 Z M 198.398438 76.890625 C 198.355469 76.53125 198.011719 76.273438 197.652344 76.332031 C 194.714844 76.632812 191.980469 77.148438 189.34375 78.066406 C 188.011719 78.523438 186.695312 79.082031 185.417969 79.753906 C 184.1875 80.414062 182.996094 81.203125 181.824219 82.074219 C 181.121094 82.605469 180.449219 83.148438 179.804688 83.722656 C 179.144531 84.308594 178.511719 84.925781 177.925781 85.570312 C 177.898438 85.613281 177.210938 86.441406 176.996094 86.785156 C 176.867188 86.972656 176.824219 87.128906 176.824219 87.1875 C 176.808594 87.546875 176.964844 87.730469 177.210938 87.804688 C 177.496094 87.902344 177.8125 87.773438 177.925781 87.488281 C 177.910156 87.488281 177.925781 87.472656 177.941406 87.460938 L 177.925781 87.488281 C 177.953125 87.503906 177.96875 87.472656 177.96875 87.429688 L 177.941406 87.460938 C 177.953125 87.429688 177.96875 87.386719 177.96875 87.359375 L 177.96875 87.429688 C 178.210938 87.128906 178.828125 86.527344 178.859375 86.515625 C 179.472656 85.957031 180.117188 85.441406 180.792969 84.9375 C 181.449219 84.4375 182.136719 83.964844 182.824219 83.507812 C 183.984375 82.734375 185.144531 82.074219 186.320312 81.460938 C 187.523438 80.828125 188.742188 80.257812 189.972656 79.769531 C 192.453125 78.796875 195.046875 78.09375 197.824219 77.636719 C 198.195312 77.59375 198.441406 77.261719 198.398438 76.890625 Z M 157.28125 97.085938 C 156.464844 96.785156 155.621094 96.570312 154.746094 96.453125 C 153.902344 96.355469 153.042969 96.355469 152.167969 96.425781 C 151.925781 96.441406 151.640625 96.496094 151.351562 96.582031 C 150.851562 96.726562 150.292969 96.957031 149.789062 97.128906 C 149.460938 97.242188 149.175781 97.371094 148.945312 97.371094 C 148.628906 97.34375 148.359375 97.570312 148.328125 97.886719 C 148.300781 98.203125 148.53125 98.472656 148.84375 98.503906 C 149.074219 98.558594 149.359375 98.53125 149.691406 98.503906 C 150.476562 98.417969 151.523438 98.085938 152.210938 98.128906 C 152.984375 98.144531 153.746094 98.246094 154.488281 98.359375 C 155.25 98.472656 155.992188 98.617188 156.710938 98.816406 C 158.15625 99.246094 159.546875 99.878906 160.808594 100.824219 C 161.078125 101.066406 161.496094 101.023438 161.738281 100.75 C 161.96875 100.464844 161.9375 100.050781 161.652344 99.820312 C 160.363281 98.601562 158.886719 97.671875 157.28125 97.085938 Z M 192.984375 93.648438 C 193.339844 93.605469 193.613281 93.273438 193.570312 92.917969 C 193.527344 92.558594 193.210938 92.300781 192.839844 92.328125 C 191.476562 92.386719 190.101562 92.601562 188.785156 93.003906 C 187.996094 93.246094 187.210938 93.574219 186.480469 93.976562 C 185.992188 94.25 185.546875 94.59375 185.101562 94.9375 C 184.746094 95.222656 184.414062 95.523438 184.085938 95.851562 C 183.769531 96.167969 183.484375 96.511719 183.199219 96.855469 C 183.097656 96.96875 182.984375 97.15625 182.898438 97.386719 C 182.867188 97.457031 182.839844 97.570312 182.8125 97.671875 C 182.78125 97.6875 182.769531 97.699219 182.738281 97.714844 C 182.46875 97.886719 182.394531 98.246094 182.582031 98.503906 C 182.769531 98.847656 183.054688 98.847656 183.269531 98.816406 C 183.414062 98.804688 183.554688 98.71875 183.699219 98.558594 C 183.855469 98.402344 184.027344 97.972656 184.199219 97.828125 C 184.515625 97.570312 184.832031 97.3125 185.160156 97.070312 C 185.488281 96.839844 185.820312 96.613281 186.164062 96.398438 C 186.566406 96.125 186.996094 95.894531 187.425781 95.667969 C 188.070312 95.308594 188.714844 94.964844 189.402344 94.691406 C 190.546875 94.21875 191.75 93.847656 192.984375 93.648438 Z M 168.398438 96.167969 L 168.398438 96.125 C 168.398438 96.109375 168.398438 96.082031 168.386719 96.082031 C 168.34375 96.097656 168.371094 96.140625 168.398438 96.167969 Z M 168.285156 100.449219 C 168.441406 99.605469 168.558594 98.761719 168.613281 97.929688 C 168.628906 97.757812 168.515625 96.742188 168.429688 96.253906 C 168.328125 96.140625 168.285156 95.980469 168.300781 95.824219 C 168.328125 95.464844 168.558594 95.367188 168.628906 95.308594 C 168.828125 95.207031 169.085938 95.179688 169.332031 95.4375 C 169.375 95.480469 169.460938 95.609375 169.515625 95.808594 C 169.675781 96.28125 169.917969 97.757812 169.917969 97.972656 C 169.917969 98.875 169.847656 99.777344 169.730469 100.679688 C 169.617188 101.582031 169.445312 102.46875 169.230469 103.34375 C 168.902344 104.675781 168.472656 105.992188 167.914062 107.265625 C 167.367188 108.554688 166.679688 109.789062 165.878906 110.933594 C 165.304688 111.734375 164.417969 112.582031 163.859375 113.527344 C 163.585938 114 163.386719 114.484375 163.472656 115.042969 C 163.527344 115.34375 163.644531 115.617188 163.84375 115.816406 C 164.042969 116.003906 164.300781 116.132812 164.601562 116.160156 C 165.046875 116.21875 165.492188 116.175781 165.9375 116.089844 C 167.210938 115.859375 168.457031 115.375 169.746094 115.375 C 171.578125 115.359375 172.914062 116.03125 174.558594 116.160156 C 175.117188 116.191406 175.71875 116.160156 176.40625 115.988281 C 176.75 115.902344 177.125 116.105469 177.210938 116.460938 C 177.308594 116.804688 177.109375 117.164062 176.75 117.265625 C 175.921875 117.523438 175.191406 117.578125 174.503906 117.566406 C 172.882812 117.523438 171.566406 116.90625 169.773438 116.976562 C 168.585938 117.035156 167.453125 117.550781 166.28125 117.808594 C 165.679688 117.9375 165.0625 117.996094 164.445312 117.953125 C 163.699219 117.894531 163.070312 117.59375 162.582031 117.136719 C 162.097656 116.691406 161.753906 116.074219 161.625 115.359375 C 161.496094 114.585938 161.609375 113.855469 161.910156 113.167969 C 162.441406 111.921875 163.601562 110.832031 164.332031 109.816406 C 165.089844 108.800781 165.734375 107.683594 166.28125 106.523438 C 166.839844 105.347656 167.296875 104.128906 167.667969 102.914062 C 167.925781 102.109375 168.128906 101.28125 168.285156 100.449219 Z M 231.503906 87.890625 C 230.144531 88.664062 228.824219 89.4375 227.59375 90.265625 C 226.734375 90.855469 225.902344 91.46875 225.113281 92.15625 C 224.46875 92.714844 223.855469 93.332031 223.265625 94.003906 C 222.707031 94.636719 222.191406 95.351562 221.707031 96.097656 C 221.40625 96.554688 220.503906 97.699219 220.042969 98.675781 C 219.714844 99.375 219.585938 100.019531 219.785156 100.421875 C 219.898438 100.722656 220.246094 100.867188 220.53125 100.75 C 220.832031 100.621094 220.976562 100.292969 220.859375 100.007812 C 220.847656 99.976562 220.875 99.964844 220.890625 99.949219 C 220.902344 99.878906 220.933594 99.820312 220.960938 99.75 C 221.0625 99.519531 221.234375 99.277344 221.433594 99.019531 C 222.007812 98.230469 222.792969 97.441406 223.09375 97.085938 C 223.710938 96.269531 224.414062 95.539062 225.085938 94.835938 C 225.113281 94.808594 225.128906 94.792969 225.15625 94.777344 C 225.101562 95.09375 225.027344 95.410156 225 95.765625 C 224.929688 96.398438 224.898438 97.054688 224.929688 97.730469 C 224.929688 98.203125 224.972656 98.6875 225.015625 99.175781 C 225.058594 99.664062 225.128906 100.136719 225.199219 100.609375 C 225.445312 102.167969 225.746094 103.644531 225.929688 104.804688 C 225.960938 105.160156 226.289062 105.433594 226.648438 105.390625 C 227.003906 105.363281 227.277344 105.03125 227.25 104.675781 C 227.207031 103.714844 227.148438 102.527344 227.0625 101.25 C 227.003906 100.523438 226.960938 99.761719 226.917969 99.019531 C 226.875 98.515625 226.847656 98.03125 226.804688 97.542969 C 226.734375 96.785156 226.675781 96.054688 226.648438 95.351562 C 226.632812 94.578125 226.648438 93.875 226.761719 93.246094 C 226.933594 93.089844 227.105469 92.902344 227.292969 92.746094 C 228.824219 91.425781 230.445312 90.210938 232.207031 89.007812 C 232.519531 88.820312 232.605469 88.40625 232.421875 88.105469 C 232.21875 87.789062 231.820312 87.6875 231.503906 87.890625 Z M 238.292969 72.308594 C 238.023438 72.707031 237.722656 73.09375 237.421875 73.453125 C 237.59375 75.328125 235.328125 78.796875 234.628906 79.683594 C 232.089844 82.804688 228.640625 82.960938 225.070312 83.421875 C 223.96875 85.3125 222.363281 86.972656 220.085938 88.320312 C 216.949219 90.179688 212.25 91.3125 209.871094 87.761719 C 208.097656 85.097656 208.941406 81.886719 209.773438 78.9375 C 209.457031 78.996094 209.214844 79.023438 209.15625 79.023438 C 207.796875 79.039062 206.347656 78.738281 205.128906 78.121094 C 201.121094 76.074219 196.992188 71.964844 195.261719 67.796875 C 194.214844 65.246094 195.617188 62.953125 196.835938 60.75 C 197.25 59.992188 198.511719 58.144531 197.679688 57.3125 C 195.015625 54.621094 189.101562 61.421875 186.335938 59.949219 C 185.53125 59.519531 184.886719 58.972656 184.34375 58.34375 C 179.574219 61.023438 173.15625 61.152344 167.398438 58.988281 C 166.464844 58.644531 165.449219 58.214844 164.402344 57.683594 C 164.085938 58.015625 163.757812 58.316406 163.386719 58.601562 C 160.304688 60.949219 157.382812 59.445312 154.144531 60.363281 C 150.820312 61.308594 147.941406 65.101562 146.152344 67.808594 C 141.839844 74.355469 146.738281 84.636719 135.894531 85.582031 C 134.433594 85.699219 132.84375 85.484375 131.527344 84.808594 C 129.492188 83.777344 128.988281 81.832031 129.933594 79.828125 C 130.367188 78.925781 132.414062 77.964844 131.613281 77.363281 C 131.054688 76.949219 127.988281 77.234375 127.15625 77.0625 C 123.03125 76.21875 119.105469 73.523438 117.601562 69.457031 C 115.566406 63.941406 119.792969 59.460938 124.851562 58.042969 C 125.265625 57.929688 130.910156 57.011719 130.910156 56.941406 C 130.867188 56.523438 128.988281 55.578125 128.675781 55.308594 C 127.085938 53.988281 125.464844 52.097656 125.109375 49.992188 C 123.648438 41.171875 133.203125 36.515625 140.320312 35.785156 C 141.953125 35.613281 147.15625 36.472656 148.445312 35.429688 C 148.660156 35.257812 147.328125 34.195312 147.210938 34.054688 C 146.566406 33.324219 145.980469 32.40625 145.78125 31.433594 C 145.265625 28.96875 147.328125 26.621094 149.046875 25.171875 C 153.15625 21.695312 158.800781 19.214844 164.359375 18.800781 C 166.539062 17.324219 169.316406 16.507812 172.039062 16.308594 C 178.886719 12.484375 188.683594 14.316406 194.757812 18.785156 C 195.890625 19.617188 196.90625 20.707031 197.324219 22.082031 C 197.394531 22.339844 197.367188 24.457031 197.410156 24.472656 C 205.015625 26.664062 213.3125 25.902344 219.527344 31.90625 C 221.363281 33.667969 222.894531 35.828125 223.238281 38.394531 C 223.324219 39.007812 222.964844 42.160156 223.480469 42.503906 C 225.042969 43.519531 227.621094 43.277344 229.382812 44.265625 C 233.394531 46.554688 235.972656 52.226562 235.789062 56.769531 C 235.730469 58.34375 234.886719 59.789062 233.824219 61.195312 C 234.371094 61.207031 234.898438 61.308594 235.402344 61.480469 C 240.671875 63.425781 241.316406 68.011719 238.292969 72.308594 " fill-opacity="1" fill-rule="evenodd"/></svg>