<svg xmlns="http://www.w3.org/2000/svg" xmlns:xlink="http://www.w3.org/1999/xlink" width="500" zoomAndPan="magnify" viewBox="0 0 375 374.999991" height="500" preserveAspectRatio="xMidYMid meet" version="1.0"><defs><clipPath id="1276e27692"><path d="M 99.105469 127 L 124 127 L 124 248 L 99.105469 248 Z M 99.105469 127 " clip-rule="nonzero"/></clipPath><clipPath id="2fa14a3bc8"><path d="M 123 119.769531 L 259 119.769531 L 259 255.519531 L 123 255.519531 Z M 123 119.769531 " clip-rule="nonzero"/></clipPath></defs><rect x="-37.5" width="450" fill="#ffffff" y="-37.499999" height="449.999989" fill-opacity="1"/><rect x="-37.5" width="450" fill="#ffffff" y="-37.499999" height="449.999989" fill-opacity="1"/><rect x="-37.5" width="450" fill="#ffffff" y="-37.499999" height="449.999989" fill-opacity="1"/><g clip-path="url(#1276e27692)"><path fill="#000000" d="M 123.523438 160.316406 C 123.304688 161.5625 123.078125 162.859375 122.71875 164.089844 C 122.125 166.117188 121.050781 167.992188 119.488281 169.378906 C 119.035156 169.78125 118.542969 170.140625 118.019531 170.421875 C 117.421875 170.746094 116.828125 171.035156 116.460938 171.578125 C 116.125 172.078125 115.9375 172.695312 115.945312 173.335938 C 116.171875 186.109375 117.175781 241.832031 117.175781 241.832031 C 117.238281 244.914062 114.808594 247.453125 111.796875 247.453125 C 108.777344 247.453125 106.355469 244.914062 106.410156 241.832031 C 106.410156 241.832031 107.445312 185.972656 107.671875 173.289062 C 107.695312 172.171875 107.09375 171.183594 106.167969 170.632812 C 106.136719 170.617188 106.105469 170.601562 106.074219 170.574219 C 105.867188 170.464844 105.640625 170.324219 105.40625 170.160156 C 102.878906 168.382812 101.171875 165.632812 100.453125 162.582031 C 100.277344 161.828125 100.191406 161.054688 100.019531 160.316406 C 99.207031 156.734375 100.742188 131.664062 100.742188 131.664062 C 100.742188 129.441406 101.410156 127.832031 102.183594 127.832031 L 102.484375 127.832031 C 103.285156 127.832031 103.933594 129.441406 103.933594 131.726562 L 103.933594 155.578125 C 103.933594 157.539062 104.433594 159.144531 105.0625 159.144531 C 105.648438 159.144531 106.152344 157.539062 106.152344 155.644531 L 106.269531 150.820312 L 106.792969 131.695312 C 106.792969 129.441406 107.460938 127.832031 108.246094 127.832031 L 108.542969 127.832031 C 109.335938 127.832031 109.992188 129.441406 109.992188 131.695312 L 110.496094 149.574219 L 110.644531 155.644531 C 110.644531 157.539062 111.136719 159.144531 111.734375 159.144531 L 111.84375 159.144531 C 112.4375 159.144531 112.933594 157.539062 112.933594 155.644531 L 113.082031 149.582031 L 113.582031 131.695312 C 113.582031 129.441406 114.242188 127.832031 115.027344 127.832031 L 115.332031 127.832031 C 116.117188 127.832031 116.773438 129.441406 116.773438 131.695312 L 117.308594 150.835938 L 117.425781 155.644531 C 117.425781 157.539062 117.917969 159.144531 118.515625 159.144531 C 119.117188 159.144531 119.589844 157.539062 119.613281 155.617188 L 119.613281 131.726562 C 119.613281 129.441406 120.253906 127.832031 121.0625 127.832031 L 121.359375 127.832031 C 122.136719 127.832031 122.8125 129.441406 122.8125 131.664062 C 122.8125 131.664062 124.292969 155.933594 123.523438 160.316406 " fill-opacity="1" fill-rule="nonzero"/></g><path fill="#000000" d="M 262.917969 128.179688 C 273.675781 137.597656 275.753906 167.382812 275.84375 173.109375 C 276.007812 183.4375 274.234375 184.542969 271.878906 184.664062 L 273.570312 241.960938 C 273.628906 244.976562 271.203125 247.453125 268.1875 247.453125 C 265.175781 247.453125 262.75 244.976562 262.804688 241.960938 L 264.496094 184.675781 C 263.070312 184.664062 261.917969 183.507812 261.917969 182.074219 L 261.917969 150.183594 C 261.917969 130.535156 260.984375 126.488281 262.917969 128.179688 " fill-opacity="1" fill-rule="nonzero"/><g clip-path="url(#2fa14a3bc8)"><path fill="#000000" d="M 190.859375 246.121094 C 158.59375 246.121094 132.433594 219.9375 132.433594 187.644531 C 132.433594 155.347656 158.59375 129.164062 190.859375 129.164062 C 223.128906 129.164062 249.285156 155.347656 249.285156 187.644531 C 249.285156 219.9375 223.128906 246.121094 190.859375 246.121094 Z M 190.859375 119.769531 C 153.40625 119.769531 123.046875 150.15625 123.046875 187.644531 C 123.046875 225.128906 153.40625 255.519531 190.859375 255.519531 C 228.3125 255.519531 258.675781 225.128906 258.675781 187.644531 C 258.675781 150.15625 228.3125 119.769531 190.859375 119.769531 " fill-opacity="1" fill-rule="nonzero"/></g><path fill="#000000" d="M 244.632812 176.570312 C 243.914062 173.042969 242.835938 169.574219 241.4375 166.257812 C 240.058594 163.003906 238.359375 159.863281 236.375 156.925781 C 234.410156 154.015625 232.15625 151.28125 229.671875 148.796875 C 227.1875 146.308594 224.457031 144.050781 221.546875 142.085938 C 218.613281 140.101562 215.476562 138.398438 212.222656 137.019531 C 208.914062 135.617188 205.445312 134.542969 201.921875 133.820312 C 198.308594 133.082031 194.585938 132.703125 190.859375 132.703125 C 187.132812 132.703125 183.414062 133.082031 179.796875 133.820312 C 176.273438 134.542969 172.808594 135.617188 169.496094 137.019531 C 166.242188 138.398438 163.105469 140.101562 160.171875 142.085938 C 157.265625 144.050781 154.53125 146.308594 152.046875 148.796875 C 149.5625 151.28125 147.308594 154.015625 145.34375 156.925781 C 143.363281 159.863281 141.660156 163.003906 140.285156 166.257812 C 138.882812 169.574219 137.804688 173.042969 137.085938 176.570312 C 136.34375 180.191406 135.96875 183.914062 135.96875 187.644531 C 135.96875 191.371094 136.34375 195.097656 137.085938 198.714844 C 137.804688 202.242188 138.882812 205.710938 140.285156 209.027344 C 141.660156 212.28125 143.363281 215.421875 145.34375 218.359375 C 147.308594 221.269531 149.5625 224.003906 152.046875 226.492188 C 154.53125 228.976562 157.265625 231.234375 160.171875 233.199219 C 163.105469 235.183594 166.242188 236.886719 169.496094 238.265625 C 172.808594 239.667969 176.273438 240.746094 179.796875 241.464844 C 183.414062 242.207031 187.132812 242.582031 190.859375 242.582031 C 194.585938 242.582031 198.308594 242.207031 201.921875 241.464844 C 205.445312 240.746094 208.914062 239.667969 212.222656 238.265625 C 215.476562 236.886719 218.613281 235.183594 221.546875 233.199219 C 224.457031 231.234375 227.1875 228.976562 229.671875 226.492188 C 232.15625 224.003906 234.410156 221.269531 236.375 218.359375 C 238.359375 215.421875 240.058594 212.28125 241.4375 209.027344 C 242.835938 205.710938 243.914062 202.242188 244.632812 198.714844 C 245.375 195.097656 245.75 191.371094 245.75 187.644531 C 245.75 183.914062 245.375 180.191406 244.632812 176.570312 " fill-opacity="1" fill-rule="nonzero"/></svg>